<mxfile host="app.diagrams.net" agent="Mozilla/5.0 (Windows NT 10.0; Win64; x64) AppleWebKit/537.36 (KHTML, like Gecko) Chrome/134.0.0.0 Safari/537.36" version="26.1.2" pages="2">
  <diagram name="Page-1" id="k9WRRL9MTCF_EUg9DVea">
    <mxGraphModel dx="956" dy="496" grid="1" gridSize="10" guides="1" tooltips="1" connect="1" arrows="1" fold="1" page="1" pageScale="1" pageWidth="850" pageHeight="1100" math="0" shadow="0">
      <root>
        <mxCell id="0" />
        <mxCell id="1" parent="0" />
        <mxCell id="rXoWBBxI0l50mG9PmL-o-3" style="edgeStyle=orthogonalEdgeStyle;rounded=0;orthogonalLoop=1;jettySize=auto;html=1;entryX=0.5;entryY=0;entryDx=0;entryDy=0;" edge="1" parent="1" source="rXoWBBxI0l50mG9PmL-o-1" target="rXoWBBxI0l50mG9PmL-o-2">
          <mxGeometry relative="1" as="geometry" />
        </mxCell>
        <mxCell id="rXoWBBxI0l50mG9PmL-o-1" value="START" style="ellipse;whiteSpace=wrap;html=1;aspect=fixed;" vertex="1" parent="1">
          <mxGeometry x="100" y="40" width="80" height="80" as="geometry" />
        </mxCell>
        <mxCell id="rXoWBBxI0l50mG9PmL-o-5" style="edgeStyle=orthogonalEdgeStyle;rounded=0;orthogonalLoop=1;jettySize=auto;html=1;entryX=0.5;entryY=0;entryDx=0;entryDy=0;" edge="1" parent="1" source="rXoWBBxI0l50mG9PmL-o-2" target="rXoWBBxI0l50mG9PmL-o-4">
          <mxGeometry relative="1" as="geometry" />
        </mxCell>
        <mxCell id="rXoWBBxI0l50mG9PmL-o-2" value="INITIALIZE&amp;nbsp;&lt;div&gt;Sitting Down&lt;/div&gt;" style="rounded=0;whiteSpace=wrap;html=1;" vertex="1" parent="1">
          <mxGeometry x="80" y="160" width="120" height="60" as="geometry" />
        </mxCell>
        <mxCell id="rXoWBBxI0l50mG9PmL-o-9" style="edgeStyle=orthogonalEdgeStyle;rounded=0;orthogonalLoop=1;jettySize=auto;html=1;entryX=0.5;entryY=0;entryDx=0;entryDy=0;" edge="1" parent="1" source="rXoWBBxI0l50mG9PmL-o-4" target="rXoWBBxI0l50mG9PmL-o-8">
          <mxGeometry relative="1" as="geometry" />
        </mxCell>
        <mxCell id="rXoWBBxI0l50mG9PmL-o-4" value="DO" style="rounded=0;whiteSpace=wrap;html=1;" vertex="1" parent="1">
          <mxGeometry x="80" y="260" width="120" height="60" as="geometry" />
        </mxCell>
        <mxCell id="rXoWBBxI0l50mG9PmL-o-11" style="edgeStyle=orthogonalEdgeStyle;rounded=0;orthogonalLoop=1;jettySize=auto;html=1;entryX=0.5;entryY=0;entryDx=0;entryDy=0;" edge="1" parent="1" source="rXoWBBxI0l50mG9PmL-o-8" target="rXoWBBxI0l50mG9PmL-o-10">
          <mxGeometry relative="1" as="geometry" />
        </mxCell>
        <mxCell id="rXoWBBxI0l50mG9PmL-o-8" value="OUTPUT&lt;div&gt;&quot;Are you sitting down (y/n)?&quot;&lt;/div&gt;" style="shape=parallelogram;perimeter=parallelogramPerimeter;whiteSpace=wrap;html=1;fixedSize=1;" vertex="1" parent="1">
          <mxGeometry x="70" y="360" width="140" height="80" as="geometry" />
        </mxCell>
        <mxCell id="rXoWBBxI0l50mG9PmL-o-13" style="edgeStyle=orthogonalEdgeStyle;rounded=0;orthogonalLoop=1;jettySize=auto;html=1;entryX=0.5;entryY=0;entryDx=0;entryDy=0;" edge="1" parent="1" source="rXoWBBxI0l50mG9PmL-o-10" target="rXoWBBxI0l50mG9PmL-o-12">
          <mxGeometry relative="1" as="geometry" />
        </mxCell>
        <mxCell id="rXoWBBxI0l50mG9PmL-o-10" value="INPUT Sitting Down" style="shape=parallelogram;perimeter=parallelogramPerimeter;whiteSpace=wrap;html=1;fixedSize=1;" vertex="1" parent="1">
          <mxGeometry x="70" y="480" width="140" height="80" as="geometry" />
        </mxCell>
        <mxCell id="rXoWBBxI0l50mG9PmL-o-14" style="edgeStyle=orthogonalEdgeStyle;rounded=0;orthogonalLoop=1;jettySize=auto;html=1;entryX=0.5;entryY=1;entryDx=0;entryDy=0;" edge="1" parent="1" source="rXoWBBxI0l50mG9PmL-o-12" target="rXoWBBxI0l50mG9PmL-o-16">
          <mxGeometry relative="1" as="geometry">
            <mxPoint x="320" y="540" as="targetPoint" />
          </mxGeometry>
        </mxCell>
        <mxCell id="rXoWBBxI0l50mG9PmL-o-23" style="edgeStyle=orthogonalEdgeStyle;rounded=0;orthogonalLoop=1;jettySize=auto;html=1;entryX=0.5;entryY=0;entryDx=0;entryDy=0;" edge="1" parent="1" source="rXoWBBxI0l50mG9PmL-o-12" target="rXoWBBxI0l50mG9PmL-o-21">
          <mxGeometry relative="1" as="geometry" />
        </mxCell>
        <mxCell id="rXoWBBxI0l50mG9PmL-o-12" value="WHILE&lt;div&gt;Sitting Down != &#39;y&#39;&lt;/div&gt;" style="rhombus;whiteSpace=wrap;html=1;" vertex="1" parent="1">
          <mxGeometry x="75" y="600" width="130" height="130" as="geometry" />
        </mxCell>
        <mxCell id="rXoWBBxI0l50mG9PmL-o-18" style="edgeStyle=orthogonalEdgeStyle;rounded=0;orthogonalLoop=1;jettySize=auto;html=1;entryX=0.5;entryY=1;entryDx=0;entryDy=0;" edge="1" parent="1" source="rXoWBBxI0l50mG9PmL-o-16" target="rXoWBBxI0l50mG9PmL-o-17">
          <mxGeometry relative="1" as="geometry" />
        </mxCell>
        <mxCell id="rXoWBBxI0l50mG9PmL-o-16" value="OUTPUT&lt;div&gt;&quot;Could you please sit down for the next exercise?&quot;&lt;/div&gt;" style="shape=parallelogram;perimeter=parallelogramPerimeter;whiteSpace=wrap;html=1;fixedSize=1;" vertex="1" parent="1">
          <mxGeometry x="260" y="560" width="140" height="60" as="geometry" />
        </mxCell>
        <mxCell id="rXoWBBxI0l50mG9PmL-o-19" style="edgeStyle=orthogonalEdgeStyle;rounded=0;orthogonalLoop=1;jettySize=auto;html=1;entryX=1;entryY=0.5;entryDx=0;entryDy=0;" edge="1" parent="1" source="rXoWBBxI0l50mG9PmL-o-17" target="rXoWBBxI0l50mG9PmL-o-8">
          <mxGeometry relative="1" as="geometry">
            <Array as="points">
              <mxPoint x="330" y="400" />
            </Array>
          </mxGeometry>
        </mxCell>
        <mxCell id="rXoWBBxI0l50mG9PmL-o-17" value="OUTPUT&lt;div&gt;&quot;\n\n&quot;&lt;/div&gt;" style="shape=parallelogram;perimeter=parallelogramPerimeter;whiteSpace=wrap;html=1;fixedSize=1;" vertex="1" parent="1">
          <mxGeometry x="270" y="460" width="120" height="60" as="geometry" />
        </mxCell>
        <mxCell id="rXoWBBxI0l50mG9PmL-o-20" value="TRUE" style="text;html=1;align=center;verticalAlign=middle;whiteSpace=wrap;rounded=0;" vertex="1" parent="1">
          <mxGeometry x="240" y="640" width="60" height="30" as="geometry" />
        </mxCell>
        <mxCell id="rXoWBBxI0l50mG9PmL-o-24" style="edgeStyle=orthogonalEdgeStyle;rounded=0;orthogonalLoop=1;jettySize=auto;html=1;entryX=0.5;entryY=0;entryDx=0;entryDy=0;" edge="1" parent="1" source="rXoWBBxI0l50mG9PmL-o-21" target="rXoWBBxI0l50mG9PmL-o-22">
          <mxGeometry relative="1" as="geometry" />
        </mxCell>
        <mxCell id="rXoWBBxI0l50mG9PmL-o-21" value="OUTPUT&lt;br&gt;&quot;Wonderful. Now we will continue with today&#39;s exercise...\n&quot;" style="shape=parallelogram;perimeter=parallelogramPerimeter;whiteSpace=wrap;html=1;fixedSize=1;" vertex="1" parent="1">
          <mxGeometry x="55" y="760" width="170" height="80" as="geometry" />
        </mxCell>
        <mxCell id="rXoWBBxI0l50mG9PmL-o-26" style="edgeStyle=orthogonalEdgeStyle;rounded=0;orthogonalLoop=1;jettySize=auto;html=1;entryX=0.5;entryY=0;entryDx=0;entryDy=0;" edge="1" parent="1" source="rXoWBBxI0l50mG9PmL-o-22" target="rXoWBBxI0l50mG9PmL-o-25">
          <mxGeometry relative="1" as="geometry" />
        </mxCell>
        <mxCell id="rXoWBBxI0l50mG9PmL-o-22" value="OUTPUT&lt;br&gt;&quot;\n...\n\n End of exercise\n&quot;" style="shape=parallelogram;perimeter=parallelogramPerimeter;whiteSpace=wrap;html=1;fixedSize=1;" vertex="1" parent="1">
          <mxGeometry x="80" y="880" width="120" height="60" as="geometry" />
        </mxCell>
        <mxCell id="rXoWBBxI0l50mG9PmL-o-27" style="edgeStyle=orthogonalEdgeStyle;rounded=0;orthogonalLoop=1;jettySize=auto;html=1;" edge="1" parent="1" source="rXoWBBxI0l50mG9PmL-o-25">
          <mxGeometry relative="1" as="geometry">
            <mxPoint x="440" y="40" as="targetPoint" />
          </mxGeometry>
        </mxCell>
        <mxCell id="rXoWBBxI0l50mG9PmL-o-25" value="INITIALIZE WantToContinue" style="rounded=0;whiteSpace=wrap;html=1;" vertex="1" parent="1">
          <mxGeometry x="80" y="1000" width="120" height="60" as="geometry" />
        </mxCell>
        <mxCell id="rXoWBBxI0l50mG9PmL-o-28" value="" style="endArrow=classic;html=1;rounded=0;entryX=0.474;entryY=0.024;entryDx=0;entryDy=0;entryPerimeter=0;" edge="1" parent="1" target="rXoWBBxI0l50mG9PmL-o-29">
          <mxGeometry width="50" height="50" relative="1" as="geometry">
            <mxPoint x="440" y="40" as="sourcePoint" />
            <mxPoint x="640" y="120" as="targetPoint" />
            <Array as="points">
              <mxPoint x="640" y="40" />
            </Array>
          </mxGeometry>
        </mxCell>
        <mxCell id="rXoWBBxI0l50mG9PmL-o-31" style="edgeStyle=orthogonalEdgeStyle;rounded=0;orthogonalLoop=1;jettySize=auto;html=1;entryX=0.5;entryY=0;entryDx=0;entryDy=0;" edge="1" parent="1" source="rXoWBBxI0l50mG9PmL-o-29" target="rXoWBBxI0l50mG9PmL-o-30">
          <mxGeometry relative="1" as="geometry" />
        </mxCell>
        <mxCell id="rXoWBBxI0l50mG9PmL-o-29" value="OUTPUT&lt;div&gt;&quot;Do you want to continue(1=Yes,0=No)?&quot;&lt;/div&gt;" style="shape=parallelogram;perimeter=parallelogramPerimeter;whiteSpace=wrap;html=1;fixedSize=1;" vertex="1" parent="1">
          <mxGeometry x="550" y="120" width="190" height="60" as="geometry" />
        </mxCell>
        <mxCell id="RrRbmeC6SAjir4YFqiHG-2" style="edgeStyle=orthogonalEdgeStyle;rounded=0;orthogonalLoop=1;jettySize=auto;html=1;entryX=0.5;entryY=0;entryDx=0;entryDy=0;" edge="1" parent="1" source="rXoWBBxI0l50mG9PmL-o-30" target="RrRbmeC6SAjir4YFqiHG-1">
          <mxGeometry relative="1" as="geometry" />
        </mxCell>
        <mxCell id="rXoWBBxI0l50mG9PmL-o-30" value="INPUT&lt;br&gt;WantToContinue" style="shape=parallelogram;perimeter=parallelogramPerimeter;whiteSpace=wrap;html=1;fixedSize=1;" vertex="1" parent="1">
          <mxGeometry x="577.5" y="220" width="135" height="60" as="geometry" />
        </mxCell>
        <mxCell id="RrRbmeC6SAjir4YFqiHG-35" style="edgeStyle=orthogonalEdgeStyle;rounded=0;orthogonalLoop=1;jettySize=auto;html=1;entryX=0.458;entryY=0;entryDx=0;entryDy=0;entryPerimeter=0;" edge="1" parent="1" source="RrRbmeC6SAjir4YFqiHG-1" target="RrRbmeC6SAjir4YFqiHG-4">
          <mxGeometry relative="1" as="geometry">
            <mxPoint x="880" y="80" as="targetPoint" />
            <Array as="points">
              <mxPoint x="880" y="375" />
              <mxPoint x="880" y="80" />
              <mxPoint x="1080" y="80" />
            </Array>
          </mxGeometry>
        </mxCell>
        <mxCell id="RrRbmeC6SAjir4YFqiHG-36" style="edgeStyle=orthogonalEdgeStyle;rounded=0;orthogonalLoop=1;jettySize=auto;html=1;entryX=0.5;entryY=0;entryDx=0;entryDy=0;" edge="1" parent="1" source="RrRbmeC6SAjir4YFqiHG-1" target="RrRbmeC6SAjir4YFqiHG-38">
          <mxGeometry relative="1" as="geometry">
            <mxPoint x="644.9999999999998" y="500" as="targetPoint" />
          </mxGeometry>
        </mxCell>
        <mxCell id="RrRbmeC6SAjir4YFqiHG-1" value="WantToContinue == &#39;1&#39;" style="rhombus;whiteSpace=wrap;html=1;" vertex="1" parent="1">
          <mxGeometry x="573.75" y="320" width="142.5" height="110" as="geometry" />
        </mxCell>
        <mxCell id="RrRbmeC6SAjir4YFqiHG-9" style="edgeStyle=orthogonalEdgeStyle;rounded=0;orthogonalLoop=1;jettySize=auto;html=1;" edge="1" parent="1" source="RrRbmeC6SAjir4YFqiHG-4" target="RrRbmeC6SAjir4YFqiHG-7">
          <mxGeometry relative="1" as="geometry" />
        </mxCell>
        <mxCell id="RrRbmeC6SAjir4YFqiHG-4" value="INITIALIZE LayOnBack" style="rounded=0;whiteSpace=wrap;html=1;" vertex="1" parent="1">
          <mxGeometry x="1025" y="120" width="120" height="60" as="geometry" />
        </mxCell>
        <mxCell id="RrRbmeC6SAjir4YFqiHG-10" style="edgeStyle=orthogonalEdgeStyle;rounded=0;orthogonalLoop=1;jettySize=auto;html=1;entryX=0.5;entryY=0;entryDx=0;entryDy=0;" edge="1" parent="1" source="RrRbmeC6SAjir4YFqiHG-7" target="RrRbmeC6SAjir4YFqiHG-8">
          <mxGeometry relative="1" as="geometry" />
        </mxCell>
        <mxCell id="RrRbmeC6SAjir4YFqiHG-7" value="OUTPUT&lt;div&gt;&quot;Good. For the next exercise, you lay on your back&quot;&lt;/div&gt;" style="shape=parallelogram;perimeter=parallelogramPerimeter;whiteSpace=wrap;html=1;fixedSize=1;" vertex="1" parent="1">
          <mxGeometry x="949.5" y="220" width="271" height="60" as="geometry" />
        </mxCell>
        <mxCell id="RrRbmeC6SAjir4YFqiHG-12" style="edgeStyle=orthogonalEdgeStyle;rounded=0;orthogonalLoop=1;jettySize=auto;html=1;entryX=0.5;entryY=0;entryDx=0;entryDy=0;" edge="1" parent="1" source="RrRbmeC6SAjir4YFqiHG-8" target="RrRbmeC6SAjir4YFqiHG-11">
          <mxGeometry relative="1" as="geometry" />
        </mxCell>
        <mxCell id="RrRbmeC6SAjir4YFqiHG-8" value="OUTPUT&lt;div&gt;&quot;\n Are you laying on your back(1=Yes,0=No)?&quot;&lt;/div&gt;" style="shape=parallelogram;perimeter=parallelogramPerimeter;whiteSpace=wrap;html=1;fixedSize=1;" vertex="1" parent="1">
          <mxGeometry x="944.5" y="320" width="281" height="60" as="geometry" />
        </mxCell>
        <mxCell id="RrRbmeC6SAjir4YFqiHG-14" style="edgeStyle=orthogonalEdgeStyle;rounded=0;orthogonalLoop=1;jettySize=auto;html=1;entryX=0.5;entryY=0;entryDx=0;entryDy=0;" edge="1" parent="1" source="RrRbmeC6SAjir4YFqiHG-11" target="RrRbmeC6SAjir4YFqiHG-13">
          <mxGeometry relative="1" as="geometry" />
        </mxCell>
        <mxCell id="RrRbmeC6SAjir4YFqiHG-11" value="INPUT&lt;div&gt;LayOnBack&lt;/div&gt;" style="shape=parallelogram;perimeter=parallelogramPerimeter;whiteSpace=wrap;html=1;fixedSize=1;" vertex="1" parent="1">
          <mxGeometry x="1025" y="410" width="120" height="60" as="geometry" />
        </mxCell>
        <mxCell id="RrRbmeC6SAjir4YFqiHG-17" style="edgeStyle=orthogonalEdgeStyle;rounded=0;orthogonalLoop=1;jettySize=auto;html=1;entryX=0.5;entryY=0;entryDx=0;entryDy=0;" edge="1" parent="1" source="RrRbmeC6SAjir4YFqiHG-13" target="RrRbmeC6SAjir4YFqiHG-18">
          <mxGeometry relative="1" as="geometry">
            <mxPoint x="1085" y="630" as="targetPoint" />
          </mxGeometry>
        </mxCell>
        <mxCell id="RrRbmeC6SAjir4YFqiHG-46" style="edgeStyle=orthogonalEdgeStyle;rounded=0;orthogonalLoop=1;jettySize=auto;html=1;entryX=0.5;entryY=0;entryDx=0;entryDy=0;" edge="1" parent="1" source="RrRbmeC6SAjir4YFqiHG-13" target="RrRbmeC6SAjir4YFqiHG-49">
          <mxGeometry relative="1" as="geometry">
            <mxPoint x="1085" y="640" as="targetPoint" />
          </mxGeometry>
        </mxCell>
        <mxCell id="RrRbmeC6SAjir4YFqiHG-13" value="LayOnBack == &#39;0&#39;" style="rhombus;whiteSpace=wrap;html=1;" vertex="1" parent="1">
          <mxGeometry x="1027.5" y="510" width="115" height="80" as="geometry" />
        </mxCell>
        <mxCell id="RrRbmeC6SAjir4YFqiHG-20" style="edgeStyle=orthogonalEdgeStyle;rounded=0;orthogonalLoop=1;jettySize=auto;html=1;entryX=0.5;entryY=0;entryDx=0;entryDy=0;" edge="1" parent="1" source="RrRbmeC6SAjir4YFqiHG-18" target="RrRbmeC6SAjir4YFqiHG-19">
          <mxGeometry relative="1" as="geometry" />
        </mxCell>
        <mxCell id="RrRbmeC6SAjir4YFqiHG-18" value="INITIALIZE&lt;div&gt;Ready&lt;/div&gt;" style="rounded=0;whiteSpace=wrap;html=1;" vertex="1" parent="1">
          <mxGeometry x="1382.5" y="100" width="120" height="60" as="geometry" />
        </mxCell>
        <mxCell id="RrRbmeC6SAjir4YFqiHG-23" style="edgeStyle=orthogonalEdgeStyle;rounded=0;orthogonalLoop=1;jettySize=auto;html=1;entryX=0.5;entryY=0;entryDx=0;entryDy=0;" edge="1" parent="1" source="RrRbmeC6SAjir4YFqiHG-19" target="RrRbmeC6SAjir4YFqiHG-22">
          <mxGeometry relative="1" as="geometry" />
        </mxCell>
        <mxCell id="RrRbmeC6SAjir4YFqiHG-19" value="DO" style="rounded=0;whiteSpace=wrap;html=1;" vertex="1" parent="1">
          <mxGeometry x="1382.5" y="200" width="120" height="60" as="geometry" />
        </mxCell>
        <mxCell id="RrRbmeC6SAjir4YFqiHG-27" style="edgeStyle=orthogonalEdgeStyle;rounded=0;orthogonalLoop=1;jettySize=auto;html=1;entryX=0.5;entryY=0;entryDx=0;entryDy=0;" edge="1" parent="1" source="RrRbmeC6SAjir4YFqiHG-22" target="RrRbmeC6SAjir4YFqiHG-25">
          <mxGeometry relative="1" as="geometry" />
        </mxCell>
        <mxCell id="RrRbmeC6SAjir4YFqiHG-22" value="OUTPUT&lt;div&gt;&quot;Please lay on your back&quot;&lt;/div&gt;" style="shape=parallelogram;perimeter=parallelogramPerimeter;whiteSpace=wrap;html=1;fixedSize=1;" vertex="1" parent="1">
          <mxGeometry x="1375" y="310" width="135" height="60" as="geometry" />
        </mxCell>
        <mxCell id="RrRbmeC6SAjir4YFqiHG-41" style="edgeStyle=orthogonalEdgeStyle;rounded=0;orthogonalLoop=1;jettySize=auto;html=1;entryX=0.998;entryY=0.656;entryDx=0;entryDy=0;entryPerimeter=0;" edge="1" parent="1" source="RrRbmeC6SAjir4YFqiHG-24" target="RrRbmeC6SAjir4YFqiHG-19">
          <mxGeometry relative="1" as="geometry">
            <mxPoint x="1620" y="240" as="targetPoint" />
            <Array as="points">
              <mxPoint x="1640" y="570" />
              <mxPoint x="1640" y="239" />
            </Array>
          </mxGeometry>
        </mxCell>
        <mxCell id="RrRbmeC6SAjir4YFqiHG-43" style="edgeStyle=orthogonalEdgeStyle;rounded=0;orthogonalLoop=1;jettySize=auto;html=1;entryX=1;entryY=0.5;entryDx=0;entryDy=0;" edge="1" parent="1" source="RrRbmeC6SAjir4YFqiHG-24" target="RrRbmeC6SAjir4YFqiHG-49">
          <mxGeometry relative="1" as="geometry">
            <mxPoint x="1442.5" y="680" as="targetPoint" />
            <Array as="points">
              <mxPoint x="1443" y="680" />
            </Array>
          </mxGeometry>
        </mxCell>
        <mxCell id="RrRbmeC6SAjir4YFqiHG-24" value="WHILE&lt;div&gt;Ready == &#39;0&#39;&lt;/div&gt;" style="rhombus;whiteSpace=wrap;html=1;" vertex="1" parent="1">
          <mxGeometry x="1385" y="530" width="115" height="80" as="geometry" />
        </mxCell>
        <mxCell id="RrRbmeC6SAjir4YFqiHG-26" style="edgeStyle=orthogonalEdgeStyle;rounded=0;orthogonalLoop=1;jettySize=auto;html=1;entryX=0.5;entryY=0;entryDx=0;entryDy=0;" edge="1" parent="1" source="RrRbmeC6SAjir4YFqiHG-25" target="RrRbmeC6SAjir4YFqiHG-24">
          <mxGeometry relative="1" as="geometry" />
        </mxCell>
        <mxCell id="RrRbmeC6SAjir4YFqiHG-25" value="OUTPUT&lt;div&gt;&quot;\n Are you ready(1=Yes,0=No)?&quot;&lt;/div&gt;" style="shape=parallelogram;perimeter=parallelogramPerimeter;whiteSpace=wrap;html=1;fixedSize=1;" vertex="1" parent="1">
          <mxGeometry x="1360" y="410" width="165" height="60" as="geometry" />
        </mxCell>
        <mxCell id="RrRbmeC6SAjir4YFqiHG-33" value="TRUE" style="text;html=1;align=center;verticalAlign=middle;resizable=0;points=[];autosize=1;strokeColor=none;fillColor=none;" vertex="1" parent="1">
          <mxGeometry x="740" y="330" width="60" height="30" as="geometry" />
        </mxCell>
        <mxCell id="RrRbmeC6SAjir4YFqiHG-34" value="FALSE" style="text;html=1;align=center;verticalAlign=middle;resizable=0;points=[];autosize=1;strokeColor=none;fillColor=none;" vertex="1" parent="1">
          <mxGeometry x="660" y="450" width="60" height="30" as="geometry" />
        </mxCell>
        <mxCell id="RrRbmeC6SAjir4YFqiHG-62" style="edgeStyle=orthogonalEdgeStyle;rounded=0;orthogonalLoop=1;jettySize=auto;html=1;entryX=0.5;entryY=0;entryDx=0;entryDy=0;" edge="1" parent="1" source="RrRbmeC6SAjir4YFqiHG-38" target="RrRbmeC6SAjir4YFqiHG-60">
          <mxGeometry relative="1" as="geometry" />
        </mxCell>
        <mxCell id="RrRbmeC6SAjir4YFqiHG-38" value="OUTPUT&lt;div&gt;&quot;\N We had enough today&quot;&lt;/div&gt;" style="shape=parallelogram;perimeter=parallelogramPerimeter;whiteSpace=wrap;html=1;fixedSize=1;" vertex="1" parent="1">
          <mxGeometry x="557.5" y="538" width="175" height="60" as="geometry" />
        </mxCell>
        <mxCell id="RrRbmeC6SAjir4YFqiHG-69" style="edgeStyle=orthogonalEdgeStyle;rounded=0;orthogonalLoop=1;jettySize=auto;html=1;" edge="1" parent="1" source="RrRbmeC6SAjir4YFqiHG-39" target="RrRbmeC6SAjir4YFqiHG-68">
          <mxGeometry relative="1" as="geometry" />
        </mxCell>
        <mxCell id="RrRbmeC6SAjir4YFqiHG-39" value="OUTPUT&lt;div&gt;&quot;\n We will stop the session now\n Thanks\n&quot;&lt;/div&gt;" style="shape=parallelogram;perimeter=parallelogramPerimeter;whiteSpace=wrap;html=1;fixedSize=1;" vertex="1" parent="1">
          <mxGeometry x="538.5" y="860" width="213" height="60" as="geometry" />
        </mxCell>
        <mxCell id="RrRbmeC6SAjir4YFqiHG-42" value="TRUE" style="text;html=1;align=center;verticalAlign=middle;resizable=0;points=[];autosize=1;strokeColor=none;fillColor=none;" vertex="1" parent="1">
          <mxGeometry x="1530" y="538" width="60" height="30" as="geometry" />
        </mxCell>
        <mxCell id="RrRbmeC6SAjir4YFqiHG-44" value="FALSE" style="text;html=1;align=center;verticalAlign=middle;resizable=0;points=[];autosize=1;strokeColor=none;fillColor=none;" vertex="1" parent="1">
          <mxGeometry x="1445" y="628" width="60" height="30" as="geometry" />
        </mxCell>
        <mxCell id="RrRbmeC6SAjir4YFqiHG-45" value="TRUE" style="text;html=1;align=center;verticalAlign=middle;resizable=0;points=[];autosize=1;strokeColor=none;fillColor=none;" vertex="1" parent="1">
          <mxGeometry x="1170.5" y="515" width="60" height="30" as="geometry" />
        </mxCell>
        <mxCell id="RrRbmeC6SAjir4YFqiHG-47" value="FALSE" style="text;html=1;align=center;verticalAlign=middle;resizable=0;points=[];autosize=1;strokeColor=none;fillColor=none;" vertex="1" parent="1">
          <mxGeometry x="1087.5" y="590" width="60" height="30" as="geometry" />
        </mxCell>
        <mxCell id="RrRbmeC6SAjir4YFqiHG-52" style="edgeStyle=orthogonalEdgeStyle;rounded=0;orthogonalLoop=1;jettySize=auto;html=1;entryX=0.5;entryY=0;entryDx=0;entryDy=0;" edge="1" parent="1" source="RrRbmeC6SAjir4YFqiHG-49" target="RrRbmeC6SAjir4YFqiHG-51">
          <mxGeometry relative="1" as="geometry" />
        </mxCell>
        <mxCell id="RrRbmeC6SAjir4YFqiHG-56" style="edgeStyle=orthogonalEdgeStyle;rounded=0;orthogonalLoop=1;jettySize=auto;html=1;entryX=1;entryY=0.5;entryDx=0;entryDy=0;" edge="1" parent="1" source="RrRbmeC6SAjir4YFqiHG-49" target="RrRbmeC6SAjir4YFqiHG-55">
          <mxGeometry relative="1" as="geometry" />
        </mxCell>
        <mxCell id="RrRbmeC6SAjir4YFqiHG-49" value="LayOnBack == &#39;1&#39;" style="rhombus;whiteSpace=wrap;html=1;" vertex="1" parent="1">
          <mxGeometry x="1027.5" y="640" width="115" height="80" as="geometry" />
        </mxCell>
        <mxCell id="RrRbmeC6SAjir4YFqiHG-66" style="edgeStyle=orthogonalEdgeStyle;rounded=0;orthogonalLoop=1;jettySize=auto;html=1;entryX=1;entryY=0.5;entryDx=0;entryDy=0;" edge="1" parent="1" source="RrRbmeC6SAjir4YFqiHG-51" target="RrRbmeC6SAjir4YFqiHG-65">
          <mxGeometry relative="1" as="geometry" />
        </mxCell>
        <mxCell id="RrRbmeC6SAjir4YFqiHG-51" value="OUTPUT&lt;br&gt;&quot;\nGreat. \nNow we will start the next exercise.&quot;" style="shape=parallelogram;perimeter=parallelogramPerimeter;whiteSpace=wrap;html=1;fixedSize=1;" vertex="1" parent="1">
          <mxGeometry x="969" y="770" width="232" height="60" as="geometry" />
        </mxCell>
        <mxCell id="RrRbmeC6SAjir4YFqiHG-53" value="TRUE" style="text;html=1;align=center;verticalAlign=middle;resizable=0;points=[];autosize=1;strokeColor=none;fillColor=none;" vertex="1" parent="1">
          <mxGeometry x="1087.5" y="730" width="60" height="30" as="geometry" />
        </mxCell>
        <mxCell id="RrRbmeC6SAjir4YFqiHG-59" style="edgeStyle=orthogonalEdgeStyle;rounded=0;orthogonalLoop=1;jettySize=auto;html=1;entryX=0.5;entryY=0;entryDx=0;entryDy=0;" edge="1" parent="1" source="RrRbmeC6SAjir4YFqiHG-55" target="RrRbmeC6SAjir4YFqiHG-65">
          <mxGeometry relative="1" as="geometry">
            <mxPoint x="720" y="760" as="targetPoint" />
          </mxGeometry>
        </mxCell>
        <mxCell id="RrRbmeC6SAjir4YFqiHG-55" value="OUTPUT&lt;div&gt;&quot;\nWell, it looks like you are getting tired...&quot;&lt;/div&gt;" style="shape=parallelogram;perimeter=parallelogramPerimeter;whiteSpace=wrap;html=1;fixedSize=1;" vertex="1" parent="1">
          <mxGeometry x="770" y="650" width="219" height="60" as="geometry" />
        </mxCell>
        <mxCell id="RrRbmeC6SAjir4YFqiHG-63" style="edgeStyle=orthogonalEdgeStyle;rounded=0;orthogonalLoop=1;jettySize=auto;html=1;entryX=0.5;entryY=0;entryDx=0;entryDy=0;" edge="1" parent="1" source="RrRbmeC6SAjir4YFqiHG-60" target="RrRbmeC6SAjir4YFqiHG-39">
          <mxGeometry relative="1" as="geometry" />
        </mxCell>
        <mxCell id="RrRbmeC6SAjir4YFqiHG-60" value="" style="ellipse;whiteSpace=wrap;html=1;aspect=fixed;" vertex="1" parent="1">
          <mxGeometry x="635" y="790" width="20" height="20" as="geometry" />
        </mxCell>
        <mxCell id="RrRbmeC6SAjir4YFqiHG-67" style="edgeStyle=orthogonalEdgeStyle;rounded=0;orthogonalLoop=1;jettySize=auto;html=1;exitX=0;exitY=0.5;exitDx=0;exitDy=0;entryX=1;entryY=0.5;entryDx=0;entryDy=0;" edge="1" parent="1" source="RrRbmeC6SAjir4YFqiHG-65" target="RrRbmeC6SAjir4YFqiHG-60">
          <mxGeometry relative="1" as="geometry" />
        </mxCell>
        <mxCell id="RrRbmeC6SAjir4YFqiHG-65" value="" style="ellipse;whiteSpace=wrap;html=1;aspect=fixed;" vertex="1" parent="1">
          <mxGeometry x="710" y="790" width="20" height="20" as="geometry" />
        </mxCell>
        <mxCell id="RrRbmeC6SAjir4YFqiHG-68" value="END" style="ellipse;whiteSpace=wrap;html=1;" vertex="1" parent="1">
          <mxGeometry x="585" y="960" width="120" height="80" as="geometry" />
        </mxCell>
        <mxCell id="RrRbmeC6SAjir4YFqiHG-70" value="FALSE" style="text;html=1;align=center;verticalAlign=middle;resizable=0;points=[];autosize=1;strokeColor=none;fillColor=none;" vertex="1" parent="1">
          <mxGeometry x="135" y="730" width="60" height="30" as="geometry" />
        </mxCell>
        <mxCell id="RrRbmeC6SAjir4YFqiHG-71" value="FALSE" style="text;html=1;align=center;verticalAlign=middle;resizable=0;points=[];autosize=1;strokeColor=none;fillColor=none;" vertex="1" parent="1">
          <mxGeometry x="980" y="680" width="60" height="30" as="geometry" />
        </mxCell>
      </root>
    </mxGraphModel>
  </diagram>
  <diagram id="8EQoepDnOfzuNN4Xfwp6" name="Page-2">
    <mxGraphModel dx="1434" dy="744" grid="1" gridSize="10" guides="1" tooltips="1" connect="1" arrows="1" fold="1" page="1" pageScale="1" pageWidth="850" pageHeight="1100" math="0" shadow="0">
      <root>
        <mxCell id="0" />
        <mxCell id="1" parent="0" />
      </root>
    </mxGraphModel>
  </diagram>
</mxfile>
